HIERARCHY
ROOT Hips
{
	OFFSET -0.001795 -0.223333 0.028219
	CHANNELS 6 Xposition Yposition Zposition Zrotation Yrotation Xrotation 
	JOINT LeftUpLeg
	{
		OFFSET 0.069520 -0.091406 -0.006815
		CHANNELS 3 Zrotation Yrotation Xrotation
		JOINT LeftLeg
		{
			OFFSET 0.034277 -0.375199 -0.004496
			CHANNELS 3 Zrotation Yrotation Xrotation
			JOINT LeftFoot
			{
				OFFSET -0.013596 -0.397961 -0.043693
				CHANNELS 3 Zrotation Yrotation Xrotation
				JOINT LeftToe
				{
					OFFSET 0.026358 -0.055791 0.119288
					CHANNELS 3 Zrotation Yrotation Xrotation
					End Site
					{
						OFFSET 0.000000 0.000000 0.000000
					}
				}
			}
		}
	}
	JOINT RightUpLeg
	{
		OFFSET -0.067670 -0.090522 -0.004320
		CHANNELS 3 Zrotation Yrotation Xrotation
		JOINT RightLeg
		{
			OFFSET -0.038290 -0.382569 -0.008850
			CHANNELS 3 Zrotation Yrotation Xrotation
			JOINT RightFoot
			{
				OFFSET 0.015774 -0.398415 -0.042312
				CHANNELS 3 Zrotation Yrotation Xrotation
				JOINT RightToe
				{
					OFFSET -0.025372 -0.048144 0.123348
					CHANNELS 3 Zrotation Yrotation Xrotation
					End Site
					{
						OFFSET 0.000000 0.000000 0.000000
					}
				}
			}
		}
	}
	JOINT Spine
	{
		OFFSET -0.002533 0.108963 -0.026696
		CHANNELS 3 Zrotation Yrotation Xrotation
		JOINT Spine1
		{
			OFFSET 0.005487 0.135180 0.001092
			CHANNELS 3 Zrotation Yrotation Xrotation
			JOINT Spine2
			{
				OFFSET 0.001457 0.052922 0.025425
				CHANNELS 3 Zrotation Yrotation Xrotation
				JOINT Neck
				{
					OFFSET -0.002778 0.213870 -0.042857
					CHANNELS 3 Zrotation Yrotation Xrotation
					JOINT Head
					{
						OFFSET 0.005152 0.064970 0.051349
						CHANNELS 3 Zrotation Yrotation Xrotation
						End Site
						{
							OFFSET 0.000000 0.000000 0.000000
						}
					}
				}
				JOINT LeftShoulder
				{
					OFFSET 0.078845 0.121749 -0.034090
					CHANNELS 3 Zrotation Yrotation Xrotation
					JOINT LeftArm
					{
						OFFSET 0.090977 0.030469 -0.008868
						CHANNELS 3 Zrotation Yrotation Xrotation
						JOINT LeftForeArm
						{
							OFFSET 0.259612 -0.012772 -0.027456
							CHANNELS 3 Zrotation Yrotation Xrotation
							JOINT LeftHand
							{
								OFFSET 0.249234 0.008986 -0.001171
								CHANNELS 3 Zrotation Yrotation Xrotation
								End Site
								{
									OFFSET 0.000000 0.000000 0.000000
								}
							}
						}
					}
				}
				JOINT RightShoulder
				{
					OFFSET -0.081759 0.118833 -0.038615
					CHANNELS 3 Zrotation Yrotation Xrotation
					JOINT RightArm
					{
						OFFSET -0.096012 0.032551 -0.009143
						CHANNELS 3 Zrotation Yrotation Xrotation
						JOINT RightForeArm
						{
							OFFSET -0.253742 -0.013329 -0.021401
							CHANNELS 3 Zrotation Yrotation Xrotation
							JOINT RightHand
							{
								OFFSET -0.255298 0.007772 -0.005559
								CHANNELS 3 Zrotation Yrotation Xrotation
								End Site
								{
									OFFSET 0.000000 0.000000 0.000000
								}
							}
						}
					}
				}
			}
		}
	}
}
MOTION
Frames: 13
Frame Time: 0.050000
0.152976 1.042487 1.106925 -2.291375 12.585229 -4.188130 1.113107 0.446180 8.295914 -3.399858 0.178176 6.422571 3.451457 5.574752 -2.676928 0.000000 0.000000 0.000000 -6.554615 0.087904 -32.623677 8.694090 -2.733721 21.654442 -9.444663 -20.133555 17.741488 0.000000 0.000000 0.000000 -1.229637 -1.003231 18.903846 5.173077 -0.341914 -26.869924 -1.185699 -5.459883 28.786683 -0.773392 2.235249 -25.132126 0.000000 0.000000 0.000000 -27.071432 3.184618 -4.450328 -43.540019 -10.356566 -3.729615 -18.623898 -36.803808 8.095233 0.000000 0.000000 0.000000 17.060733 0.012742 -0.294233 49.925456 -2.146347 -8.270526 16.754636 32.774678 6.484983 0.000000 0.000000 0.000000 
0.158262 1.035125 1.159569 -2.124319 14.971148 -4.380583 1.880952 0.416792 11.801958 -3.079533 0.108265 6.497594 3.137547 2.600415 -6.317018 0.000000 0.000000 0.000000 -6.613233 -0.210157 -32.173599 5.809152 -1.146094 9.760466 -8.342747 -17.876301 17.691364 0.000000 0.000000 0.000000 -0.636054 -1.080857 17.917349 4.614466 -0.169308 -27.186358 -2.103406 -7.615160 29.390251 -2.136420 2.938765 -25.383133 0.000000 0.000000 0.000000 -26.440444 2.774702 -3.877348 -43.500597 -12.004536 -3.293305 -18.150633 -37.386682 8.128281 0.000000 0.000000 0.000000 17.671088 -0.206656 -0.530017 49.521747 -3.146231 -8.643789 15.561169 32.751893 6.088840 0.000000 0.000000 0.000000 
0.163262 1.027974 1.215989 -1.789335 16.107017 -4.364368 2.249317 0.359241 15.091111 -2.433669 -0.000450 6.977773 3.621457 1.608917 -9.281336 0.000000 0.000000 0.000000 -6.639379 -0.364961 -32.227605 4.914756 -0.841570 6.457620 -7.558115 -16.327336 20.072702 0.000000 0.000000 0.000000 -0.480113 -1.053759 17.095818 5.638855 -0.369750 -27.432503 -3.469011 -8.490262 29.045715 -2.243461 2.901522 -23.312137 0.000000 0.000000 0.000000 -27.407255 2.791930 -4.010901 -42.845296 -12.385319 -3.093656 -19.184070 -37.456736 8.493287 0.000000 0.000000 0.000000 17.621528 -0.198130 -0.560151 49.900229 -3.589964 -8.831824 14.460192 32.499299 5.709155 0.000000 0.000000 0.000000 
0.167710 1.024678 1.277393 -1.718655 17.475230 -4.736276 2.925053 0.118310 19.090620 -1.629201 -0.145636 7.639228 3.100557 0.082957 -9.472684 0.000000 0.000000 0.000000 -6.015760 -0.331439 -32.132275 4.735689 -1.009804 10.869154 -7.521224 -15.965751 23.215496 0.000000 0.000000 0.000000 0.472474 -1.139938 16.305878 5.542235 -0.327483 -27.362101 -4.435464 -9.083693 28.877033 -1.914458 2.754038 -23.758856 0.000000 0.000000 0.000000 -28.270353 2.311584 -3.992421 -42.454088 -11.630131 -3.237367 -19.094966 -37.696886 8.454970 0.000000 0.000000 0.000000 19.272713 -0.736416 -0.839420 48.507532 -3.517652 -8.598874 12.702656 32.502697 5.226558 0.000000 0.000000 0.000000 
0.171369 1.027328 1.341495 -1.883594 18.022712 -4.207939 4.010275 -0.211149 20.559445 -1.140190 -0.372460 10.360589 2.251695 0.968252 -5.495163 0.000000 0.000000 0.000000 -5.920340 -0.378390 -32.458397 6.812405 -1.991893 16.446493 -7.728848 -16.260982 23.873022 0.000000 0.000000 0.000000 1.162693 -0.973816 13.663806 6.104944 -0.465791 -26.752227 -5.363616 -9.609237 28.779453 -1.807189 2.623964 -22.639744 0.000000 0.000000 0.000000 -28.543168 3.255064 -4.663806 -44.027735 -10.330150 -3.732681 -19.602364 -37.329697 8.589742 0.000000 0.000000 0.000000 19.430387 -1.228287 -1.161966 48.050181 -3.622188 -8.495970 11.947942 34.723688 5.407466 0.000000 0.000000 0.000000 
0.174026 1.037442 1.403664 -1.912201 16.368902 -3.375372 4.548680 -0.167994 19.400217 -1.281716 -0.693743 15.764233 1.004903 1.585920 -0.636171 0.000000 0.000000 0.000000 -4.959869 0.170191 -32.138441 8.615964 -2.884972 20.410214 -7.412169 -16.277662 20.725209 0.000000 0.000000 0.000000 1.521645 -0.828614 11.891683 6.835671 -0.688614 -26.193855 -5.210040 -9.318805 27.812188 -2.422348 2.917482 -22.944799 0.000000 0.000000 0.000000 -29.643518 4.212078 -5.253623 -44.597696 -8.368824 -4.407546 -20.148825 -36.618072 8.678496 0.000000 0.000000 0.000000 18.268447 -0.668590 -1.003728 48.456758 -2.803140 -8.111904 13.228748 36.321464 6.046403 0.000000 0.000000 0.000000 
0.175351 1.052535 1.459425 -2.874043 15.723689 -3.215888 6.686567 -0.442956 15.226166 -3.213504 -1.014700 25.944015 0.069692 3.811312 6.779859 0.000000 0.000000 0.000000 -3.096726 0.885845 -29.298847 8.840142 -3.065299 21.310068 -7.424064 -16.524230 17.474662 0.000000 0.000000 0.000000 3.201413 -0.910500 10.894927 6.143199 -0.476471 -27.529899 -4.796129 -9.114391 28.884507 -3.515723 3.592022 -22.942082 0.000000 0.000000 0.000000 -29.486548 4.391830 -5.264373 -45.622078 -7.208931 -5.032213 -21.101899 -35.052980 8.652909 0.000000 0.000000 0.000000 16.378143 -0.934549 -1.035314 47.885489 -1.303960 -7.550624 14.406540 38.119334 6.809621 0.000000 0.000000 0.000000 
0.175850 1.066700 1.505971 -3.550074 14.829013 -3.408405 8.408831 -0.462214 7.538481 -7.110076 -0.714215 39.483070 1.698578 9.440260 15.359140 0.000000 0.000000 0.000000 -1.314209 1.428204 -26.285964 9.049144 -3.132445 21.504176 -6.994485 -16.017847 16.199047 0.000000 0.000000 0.000000 3.536001 -1.021741 11.666613 6.938983 -0.655800 -27.937927 -4.270457 -6.714118 28.152463 -2.284631 3.153077 -22.977543 0.000000 0.000000 0.000000 -30.297321 4.512037 -6.283477 -44.980469 -5.876163 -5.106582 -22.599303 -33.880699 8.593319 0.000000 0.000000 0.000000 15.522611 -0.090296 -0.202454 47.099418 -0.343542 -7.065971 16.695119 42.260122 8.794085 0.000000 0.000000 0.000000 
0.176599 1.079841 1.544351 -3.008028 13.869959 -3.835510 8.411337 -0.358944 -0.497595 -10.470762 0.326472 49.653537 5.475560 14.847369 16.663722 0.000000 0.000000 0.000000 -0.494355 1.564601 -22.375805 8.185859 -2.661633 20.470535 -6.797655 -15.868896 15.339088 0.000000 0.000000 0.000000 2.623512 -1.052952 13.192021 6.156346 -0.463115 -28.618058 -2.632354 -4.876800 28.865779 -1.142231 2.732526 -24.568686 0.000000 0.000000 0.000000 -30.177114 3.884187 -6.264304 -44.376546 -6.066281 -4.923957 -23.412145 -34.557346 8.936035 0.000000 0.000000 0.000000 15.056074 0.679068 0.469306 46.051586 2.298146 -6.160844 19.191543 46.351290 11.162840 0.000000 0.000000 0.000000 
0.178215 1.091444 1.577172 -2.303310 12.705949 -3.461770 8.561170 -0.448189 -7.281227 -13.743475 2.411661 52.146258 8.730351 18.890151 12.410212 0.000000 0.000000 0.000000 -0.075003 1.565789 -19.587484 6.955437 -2.044180 19.135601 -6.198007 -15.017099 14.356898 0.000000 0.000000 0.000000 1.570309 -0.964863 13.811961 5.796658 -0.419301 -27.996820 -1.107476 -2.133500 28.250038 0.318916 2.197863 -24.566417 0.000000 0.000000 0.000000 -30.438509 3.233553 -6.718392 -43.537134 -4.637006 -5.000851 -23.939293 -35.438077 9.103199 0.000000 0.000000 0.000000 15.296347 0.867565 0.910461 44.644345 5.071610 -5.088103 19.867351 52.388476 13.650333 0.000000 0.000000 0.000000 
0.180939 1.100612 1.605800 -1.351980 11.455261 -2.838414 7.835352 -0.649362 -12.680146 -14.446407 3.197686 48.722584 9.790911 20.222583 7.595541 0.000000 0.000000 0.000000 -0.258414 1.467799 -17.796860 5.798605 -1.520419 18.141018 -5.647367 -14.202281 13.059622 0.000000 0.000000 0.000000 0.296707 -0.821985 14.275012 5.470138 -0.341515 -28.379383 -0.005258 0.098728 28.595050 0.572962 2.320076 -24.828430 0.000000 0.000000 0.000000 -29.578068 3.284995 -7.107236 -43.976325 -3.731546 -5.248489 -24.420704 -36.237125 9.337505 0.000000 0.000000 0.000000 15.248452 1.821871 1.673398 43.630585 7.432228 -4.309658 19.984426 57.943479 15.891043 0.000000 0.000000 0.000000 
0.185205 1.106100 1.631609 -0.905882 10.144137 -2.027682 7.038916 -0.813676 -15.176538 -12.280308 2.377631 39.217251 9.515657 19.627693 5.229148 0.000000 0.000000 0.000000 0.012464 1.397803 -15.671968 4.781623 -1.043131 16.202520 -5.067334 -13.245868 11.412096 0.000000 0.000000 0.000000 -0.520477 -0.675566 13.952833 5.561103 -0.399254 -27.697687 0.531528 2.246114 28.104042 0.417015 2.662499 -25.110987 0.000000 0.000000 0.000000 -28.880488 3.396944 -7.550180 -44.183990 -2.789239 -5.409943 -24.249631 -36.628332 9.214351 0.000000 0.000000 0.000000 14.116020 1.271346 1.518881 44.408369 9.542478 -3.523347 18.784214 62.685768 17.333430 0.000000 0.000000 0.000000 
0.190743 1.111316 1.655746 -0.413887 9.033238 -1.445938 6.354718 -0.838149 -14.873513 -8.219315 1.015118 26.721247 7.008113 15.408361 5.454571 0.000000 0.000000 0.000000 -0.012577 1.304395 -14.241354 3.837280 -0.692268 15.120774 -4.857968 -12.930852 10.426892 0.000000 0.000000 0.000000 -1.429896 -0.540608 13.949780 5.798292 -0.458017 -27.597543 0.812381 3.377211 28.145232 0.530111 2.665753 -24.973798 0.000000 0.000000 0.000000 -29.333727 4.167236 -8.318751 -43.740315 -1.907388 -5.611246 -23.686685 -36.522271 8.960973 0.000000 0.000000 0.000000 14.745255 1.256399 1.628027 44.103150 11.031539 -3.072322 19.566429 65.320808 18.963104 0.000000 0.000000 0.000000 
